# xmcd
#
# Track frame offsets:
#	150
#	15380
#	32635
#	49217
#	58327
#	68015
#	79057
#	90700
#	104997
#	117697
#	134642
#	145297
#	156142
#	167955
#	178352
#	194617
#	213152
#	225532
#	240040
#	251222
#	273165
#
# Disc length: 4440 seconds
#
# Revision: 0
# Processed by: cddbd v1.5.2PL0 Copyright (c) Steve Scherf et al.
# Submitted via: EZCDAudioConverter 2.0.5.1
#
DISCID=3a115615
DTITLE=Charles Aznavour - Platinum Collection (Aznavour) - CD 2
DYEAR=2005
DGENRE=Chanson francaise
TTITLE0=Charles Aznavour - Je m'voyais deja
TTITLE1=Charles Aznavour - Les deux guitares
TTITLE2=Charles Aznavour - Tu t'laisses aller
TTITLE3=Charles Aznavour - Rendez-vous a Brasilia
TTITLE4=Charles Aznavour - Quand tu m'embrasses
TTITLE5=Charles Aznavour - Comme des etrangers
TTITLE6=Charles Aznavour - L'amour et la guerre
TTITLE7=Charles Aznavour - Il faut savoir
TTITLE8=Charles Aznavour - La marche des anges
TTITLE9=Charles Aznavour - L'amour c'est comme un jour
TTITLE10=Charles Aznavour - Les comediens
TTITLE11=Charles Aznavour - Trousse-chemise
TTITLE12=Charles Aznavour - Esperanza
TTITLE13=Charles Aznavour - For me, for me, formidable
TTITLE14=Charles Aznavour - Qui
TTITLE15=Charles Aznavour - Bon anniversaire
TTITLE16=Charles Aznavour - Les deux pigeons
TTITLE17=Charles Aznavour - Viens pleurer au creux de mon epaule
TTITLE18=Charles Aznavour - Trop tard
TTITLE19=Charles Aznavour - Le palais de nos chimeres
TTITLE20=Charles aznavour - Unknown track
EXTD=
EXTT0=
EXTT1=
EXTT2=
EXTT3=
EXTT4=
EXTT5=
EXTT6=
EXTT7=
EXTT8=
EXTT9=
EXTT10=
EXTT11=
EXTT12=
EXTT13=
EXTT14=
EXTT15=
EXTT16=
EXTT17=
EXTT18=
EXTT19=
EXTT20=
PLAYORDER=
